<mxfile host="app.diagrams.net" agent="Mozilla/5.0 (X11; Ubuntu; Linux x86_64; rv:139.0) Gecko/20100101 Firefox/139.0" version="27.1.6">
  <diagram name="Page-1" id="jeAPe12Jvo0AdcUDKuSi">
    <mxGraphModel dx="3940" dy="2278" grid="1" gridSize="10" guides="1" tooltips="1" connect="1" arrows="1" fold="1" page="1" pageScale="1" pageWidth="827" pageHeight="1169" math="0" shadow="0">
      <root>
        <mxCell id="0" />
        <mxCell id="1" parent="0" />
        <mxCell id="GgWPGhP955FBsJjcMlRA-1" style="edgeStyle=orthogonalEdgeStyle;rounded=0;orthogonalLoop=1;jettySize=auto;html=1;exitX=1;exitY=0.5;exitDx=0;exitDy=0;strokeWidth=2;" parent="1" source="GgWPGhP955FBsJjcMlRA-3" edge="1">
          <mxGeometry relative="1" as="geometry">
            <mxPoint x="570" y="432.08000000000004" as="targetPoint" />
          </mxGeometry>
        </mxCell>
        <mxCell id="GgWPGhP955FBsJjcMlRA-3" value="&lt;div&gt;Instruction&amp;nbsp;&lt;/div&gt;&lt;div&gt;Memory&lt;/div&gt;" style="rounded=0;whiteSpace=wrap;html=1;" parent="1" vertex="1">
          <mxGeometry x="380" y="352.08000000000004" width="120" height="160" as="geometry" />
        </mxCell>
        <mxCell id="GgWPGhP955FBsJjcMlRA-8" style="edgeStyle=orthogonalEdgeStyle;rounded=0;orthogonalLoop=1;jettySize=auto;html=1;exitX=1;exitY=0.5;exitDx=0;exitDy=0;entryX=0;entryY=0.5;entryDx=0;entryDy=0;strokeWidth=2;" parent="1" source="GgWPGhP955FBsJjcMlRA-9" target="GgWPGhP955FBsJjcMlRA-3" edge="1">
          <mxGeometry relative="1" as="geometry" />
        </mxCell>
        <mxCell id="GgWPGhP955FBsJjcMlRA-9" value="PC" style="rounded=0;whiteSpace=wrap;html=1;" parent="1" vertex="1">
          <mxGeometry x="300" y="382.08000000000004" width="30" height="100" as="geometry" />
        </mxCell>
        <mxCell id="GgWPGhP955FBsJjcMlRA-10" value="" style="endArrow=classic;html=1;rounded=0;strokeWidth=2;entryX=0.794;entryY=1.006;entryDx=0;entryDy=0;entryPerimeter=0;" parent="1" edge="1">
          <mxGeometry width="50" height="50" relative="1" as="geometry">
            <mxPoint x="2149" y="300" as="sourcePoint" />
            <mxPoint x="237.39999999999998" y="454.3575000000001" as="targetPoint" />
            <Array as="points">
              <mxPoint x="2270" y="300" />
              <mxPoint x="2270" y="760" />
              <mxPoint x="170" y="760" />
              <mxPoint x="170" y="454" />
            </Array>
          </mxGeometry>
        </mxCell>
        <mxCell id="GgWPGhP955FBsJjcMlRA-237" value="pc_in" style="edgeLabel;html=1;align=center;verticalAlign=middle;resizable=0;points=[];" parent="GgWPGhP955FBsJjcMlRA-10" vertex="1" connectable="0">
          <mxGeometry x="0.9662" y="2" relative="1" as="geometry">
            <mxPoint x="-1" y="-8" as="offset" />
          </mxGeometry>
        </mxCell>
        <mxCell id="GgWPGhP955FBsJjcMlRA-12" value="" style="endArrow=classic;html=1;rounded=0;entryX=1;entryY=0.5;entryDx=0;entryDy=0;" parent="1" target="_0MflfALVSfiB-92yCqd-18" edge="1">
          <mxGeometry width="50" height="50" relative="1" as="geometry">
            <mxPoint x="2149" y="330" as="sourcePoint" />
            <mxPoint x="246" y="460" as="targetPoint" />
            <Array as="points">
              <mxPoint x="2240" y="330" />
              <mxPoint x="2240" y="740" />
              <mxPoint x="246" y="740" />
              <mxPoint x="246" y="520" />
            </Array>
          </mxGeometry>
        </mxCell>
        <mxCell id="_0MflfALVSfiB-92yCqd-2" value="pc_load_en" style="edgeLabel;html=1;align=center;verticalAlign=middle;resizable=0;points=[];" parent="GgWPGhP955FBsJjcMlRA-12" vertex="1" connectable="0">
          <mxGeometry x="0.976" y="2" relative="1" as="geometry">
            <mxPoint x="-31" y="-8" as="offset" />
          </mxGeometry>
        </mxCell>
        <mxCell id="GgWPGhP955FBsJjcMlRA-14" value="" style="triangle;whiteSpace=wrap;html=1;rotation=-90;" parent="1" vertex="1">
          <mxGeometry x="310" y="472.08000000000004" width="10" height="10" as="geometry" />
        </mxCell>
        <mxCell id="GgWPGhP955FBsJjcMlRA-15" value="" style="triangle;whiteSpace=wrap;html=1;rotation=0;" parent="1" vertex="1">
          <mxGeometry x="380" y="492.08000000000004" width="10" height="10" as="geometry" />
        </mxCell>
        <mxCell id="GgWPGhP955FBsJjcMlRA-16" value="" style="endArrow=none;html=1;rounded=0;exitX=0;exitY=0.5;exitDx=0;exitDy=0;" parent="1" edge="1">
          <mxGeometry width="50" height="50" relative="1" as="geometry">
            <mxPoint x="380" y="496.90999999999997" as="sourcePoint" />
            <mxPoint x="300" y="497" as="targetPoint" />
          </mxGeometry>
        </mxCell>
        <mxCell id="GgWPGhP955FBsJjcMlRA-17" value="&lt;div&gt;clk&lt;/div&gt;" style="edgeLabel;html=1;align=center;verticalAlign=middle;resizable=0;points=[];" parent="GgWPGhP955FBsJjcMlRA-16" vertex="1" connectable="0">
          <mxGeometry x="0.8454" y="-3" relative="1" as="geometry">
            <mxPoint x="-18" y="3" as="offset" />
          </mxGeometry>
        </mxCell>
        <mxCell id="GgWPGhP955FBsJjcMlRA-18" value="" style="endArrow=none;html=1;rounded=0;entryX=0;entryY=0.5;entryDx=0;entryDy=0;" parent="1" target="GgWPGhP955FBsJjcMlRA-14" edge="1">
          <mxGeometry width="50" height="50" relative="1" as="geometry">
            <mxPoint x="315" y="492.08000000000004" as="sourcePoint" />
            <mxPoint x="314.83000000000004" y="482.08000000000004" as="targetPoint" />
            <Array as="points" />
          </mxGeometry>
        </mxCell>
        <mxCell id="GgWPGhP955FBsJjcMlRA-19" value="" style="endArrow=none;html=1;rounded=0;entryX=0;entryY=0.5;entryDx=0;entryDy=0;movable=1;resizable=1;rotatable=1;deletable=1;editable=1;locked=0;connectable=1;endSize=6;spacing=1;" parent="1" target="GgWPGhP955FBsJjcMlRA-14" edge="1">
          <mxGeometry width="50" height="50" relative="1" as="geometry">
            <mxPoint x="315" y="497.08000000000004" as="sourcePoint" />
            <mxPoint x="315" y="482.08000000000004" as="targetPoint" />
            <Array as="points" />
          </mxGeometry>
        </mxCell>
        <mxCell id="GgWPGhP955FBsJjcMlRA-20" value="" style="endArrow=classic;html=1;rounded=0;strokeWidth=2;" parent="1" edge="1">
          <mxGeometry width="50" height="50" relative="1" as="geometry">
            <mxPoint x="350" y="327.08" as="sourcePoint" />
            <mxPoint x="570" y="327.08" as="targetPoint" />
          </mxGeometry>
        </mxCell>
        <mxCell id="GgWPGhP955FBsJjcMlRA-21" value="curr_pc" style="edgeLabel;html=1;align=center;verticalAlign=middle;resizable=0;points=[];" parent="GgWPGhP955FBsJjcMlRA-20" vertex="1" connectable="0">
          <mxGeometry x="-0.0011" y="3" relative="1" as="geometry">
            <mxPoint x="81" y="-10" as="offset" />
          </mxGeometry>
        </mxCell>
        <mxCell id="GgWPGhP955FBsJjcMlRA-22" value="" style="endArrow=classic;html=1;rounded=0;strokeWidth=2;" parent="1" edge="1">
          <mxGeometry width="50" height="50" relative="1" as="geometry">
            <mxPoint x="420" y="272.08" as="sourcePoint" />
            <mxPoint x="570" y="272.08" as="targetPoint" />
          </mxGeometry>
        </mxCell>
        <mxCell id="GgWPGhP955FBsJjcMlRA-23" value="next_pc" style="edgeLabel;html=1;align=center;verticalAlign=middle;resizable=0;points=[];" parent="GgWPGhP955FBsJjcMlRA-22" vertex="1" connectable="0">
          <mxGeometry x="0.2977" relative="1" as="geometry">
            <mxPoint x="22" y="-16" as="offset" />
          </mxGeometry>
        </mxCell>
        <mxCell id="GgWPGhP955FBsJjcMlRA-24" value="" style="endArrow=none;html=1;rounded=0;" parent="1" edge="1">
          <mxGeometry width="50" height="50" relative="1" as="geometry">
            <mxPoint x="395" y="302.08" as="sourcePoint" />
            <mxPoint x="420" y="287.08" as="targetPoint" />
          </mxGeometry>
        </mxCell>
        <mxCell id="GgWPGhP955FBsJjcMlRA-25" value="" style="endArrow=none;html=1;rounded=0;" parent="1" edge="1">
          <mxGeometry width="50" height="50" relative="1" as="geometry">
            <mxPoint x="420" y="287.08" as="sourcePoint" />
            <mxPoint x="420" y="257.08" as="targetPoint" />
          </mxGeometry>
        </mxCell>
        <mxCell id="GgWPGhP955FBsJjcMlRA-26" value="" style="endArrow=none;html=1;rounded=0;" parent="1" edge="1">
          <mxGeometry width="50" height="50" relative="1" as="geometry">
            <mxPoint x="395" y="242.07999999999996" as="sourcePoint" />
            <mxPoint x="420" y="257.08" as="targetPoint" />
          </mxGeometry>
        </mxCell>
        <mxCell id="GgWPGhP955FBsJjcMlRA-27" value="" style="endArrow=none;html=1;rounded=0;" parent="1" edge="1">
          <mxGeometry width="50" height="50" relative="1" as="geometry">
            <mxPoint x="395" y="282.08" as="sourcePoint" />
            <mxPoint x="395" y="302.08" as="targetPoint" />
          </mxGeometry>
        </mxCell>
        <mxCell id="GgWPGhP955FBsJjcMlRA-28" value="" style="endArrow=none;html=1;rounded=0;" parent="1" edge="1">
          <mxGeometry width="50" height="50" relative="1" as="geometry">
            <mxPoint x="395" y="242.07999999999996" as="sourcePoint" />
            <mxPoint x="395" y="262.08" as="targetPoint" />
          </mxGeometry>
        </mxCell>
        <mxCell id="GgWPGhP955FBsJjcMlRA-29" value="" style="endArrow=none;html=1;rounded=0;" parent="1" edge="1">
          <mxGeometry width="50" height="50" relative="1" as="geometry">
            <mxPoint x="395" y="282.08" as="sourcePoint" />
            <mxPoint x="405" y="272.08" as="targetPoint" />
          </mxGeometry>
        </mxCell>
        <mxCell id="GgWPGhP955FBsJjcMlRA-30" value="" style="endArrow=none;html=1;rounded=0;" parent="1" edge="1">
          <mxGeometry width="50" height="50" relative="1" as="geometry">
            <mxPoint x="395" y="262.08" as="sourcePoint" />
            <mxPoint x="405" y="272.08" as="targetPoint" />
          </mxGeometry>
        </mxCell>
        <mxCell id="GgWPGhP955FBsJjcMlRA-31" value="&lt;div&gt;+&lt;/div&gt;" style="text;html=1;align=center;verticalAlign=middle;whiteSpace=wrap;rounded=0;" parent="1" vertex="1">
          <mxGeometry x="405" y="267.08" width="15" height="5" as="geometry" />
        </mxCell>
        <mxCell id="GgWPGhP955FBsJjcMlRA-32" value="" style="endArrow=none;html=1;rounded=0;strokeWidth=2;" parent="1" edge="1">
          <mxGeometry width="50" height="50" relative="1" as="geometry">
            <mxPoint x="350" y="432.08000000000004" as="sourcePoint" />
            <mxPoint x="350" y="292.08" as="targetPoint" />
          </mxGeometry>
        </mxCell>
        <mxCell id="GgWPGhP955FBsJjcMlRA-33" value="&lt;div&gt;4&lt;/div&gt;" style="text;html=1;align=center;verticalAlign=middle;whiteSpace=wrap;rounded=0;" parent="1" vertex="1">
          <mxGeometry x="340" y="237.07999999999996" width="10" height="30" as="geometry" />
        </mxCell>
        <mxCell id="GgWPGhP955FBsJjcMlRA-34" value="" style="endArrow=classic;html=1;rounded=0;strokeWidth=2;" parent="1" edge="1">
          <mxGeometry width="50" height="50" relative="1" as="geometry">
            <mxPoint x="350" y="292.08" as="sourcePoint" />
            <mxPoint x="395" y="292.08" as="targetPoint" />
          </mxGeometry>
        </mxCell>
        <mxCell id="GgWPGhP955FBsJjcMlRA-35" value="" style="endArrow=classic;html=1;rounded=0;strokeWidth=2;" parent="1" edge="1">
          <mxGeometry width="50" height="50" relative="1" as="geometry">
            <mxPoint x="355" y="252.07999999999996" as="sourcePoint" />
            <mxPoint x="395" y="252.07999999999996" as="targetPoint" />
          </mxGeometry>
        </mxCell>
        <mxCell id="GgWPGhP955FBsJjcMlRA-55" value="" style="endArrow=classic;html=1;rounded=0;entryX=0;entryY=0.75;entryDx=0;entryDy=0;exitX=0.598;exitY=0.009;exitDx=0;exitDy=0;exitPerimeter=0;" parent="1" source="GgWPGhP955FBsJjcMlRA-178" edge="1" target="gbBY1x8hugoj5Ck36s1q-1">
          <mxGeometry width="50" height="50" relative="1" as="geometry">
            <mxPoint x="2150" y="460" as="sourcePoint" />
            <mxPoint x="760" y="503" as="targetPoint" />
            <Array as="points">
              <mxPoint x="2180" y="460" />
              <mxPoint x="2180" y="700" />
              <mxPoint x="705" y="700" />
              <mxPoint x="704" y="468" />
            </Array>
          </mxGeometry>
        </mxCell>
        <mxCell id="GgWPGhP955FBsJjcMlRA-95" value="" style="endArrow=classic;html=1;rounded=0;strokeWidth=2;entryX=0.25;entryY=1;entryDx=0;entryDy=0;exitX=0.326;exitY=-0.04;exitDx=0;exitDy=0;exitPerimeter=0;" parent="1" source="GgWPGhP955FBsJjcMlRA-178" target="gbBY1x8hugoj5Ck36s1q-1" edge="1">
          <mxGeometry width="50" height="50" relative="1" as="geometry">
            <mxPoint x="2260" y="400" as="sourcePoint" />
            <mxPoint x="760" y="526" as="targetPoint" />
            <Array as="points">
              <mxPoint x="2210" y="430" />
              <mxPoint x="2210" y="720" />
              <mxPoint x="788" y="720" />
            </Array>
          </mxGeometry>
        </mxCell>
        <mxCell id="gbBY1x8hugoj5Ck36s1q-50" value="rd_value[31:0]" style="edgeLabel;html=1;align=center;verticalAlign=middle;resizable=0;points=[];" vertex="1" connectable="0" parent="GgWPGhP955FBsJjcMlRA-95">
          <mxGeometry x="0.9406" y="-1" relative="1" as="geometry">
            <mxPoint x="-39" y="-21" as="offset" />
          </mxGeometry>
        </mxCell>
        <mxCell id="GgWPGhP955FBsJjcMlRA-97" value="Comparator" style="whiteSpace=wrap;html=1;aspect=fixed;" parent="1" vertex="1">
          <mxGeometry x="1167" y="213" width="80" height="80" as="geometry" />
        </mxCell>
        <mxCell id="GgWPGhP955FBsJjcMlRA-98" value="" style="endArrow=none;html=1;rounded=0;" parent="1" edge="1">
          <mxGeometry width="50" height="50" relative="1" as="geometry">
            <mxPoint x="1117" y="498" as="sourcePoint" />
            <mxPoint x="1127" y="488" as="targetPoint" />
          </mxGeometry>
        </mxCell>
        <mxCell id="GgWPGhP955FBsJjcMlRA-99" value="" style="endArrow=none;html=1;rounded=0;" parent="1" edge="1">
          <mxGeometry width="50" height="50" relative="1" as="geometry">
            <mxPoint x="1117" y="438" as="sourcePoint" />
            <mxPoint x="1127" y="448" as="targetPoint" />
          </mxGeometry>
        </mxCell>
        <mxCell id="GgWPGhP955FBsJjcMlRA-100" value="" style="endArrow=none;html=1;rounded=0;" parent="1" edge="1">
          <mxGeometry width="50" height="50" relative="1" as="geometry">
            <mxPoint x="1127" y="488" as="sourcePoint" />
            <mxPoint x="1127" y="448" as="targetPoint" />
          </mxGeometry>
        </mxCell>
        <mxCell id="GgWPGhP955FBsJjcMlRA-101" value="" style="endArrow=none;html=1;rounded=0;" parent="1" edge="1">
          <mxGeometry width="50" height="50" relative="1" as="geometry">
            <mxPoint x="1117" y="498" as="sourcePoint" />
            <mxPoint x="1117" y="438" as="targetPoint" />
          </mxGeometry>
        </mxCell>
        <mxCell id="GgWPGhP955FBsJjcMlRA-102" value="" style="endArrow=none;html=1;rounded=0;" parent="1" edge="1">
          <mxGeometry width="50" height="50" relative="1" as="geometry">
            <mxPoint x="1117" y="408" as="sourcePoint" />
            <mxPoint x="1127" y="398" as="targetPoint" />
          </mxGeometry>
        </mxCell>
        <mxCell id="GgWPGhP955FBsJjcMlRA-103" value="" style="endArrow=none;html=1;rounded=0;" parent="1" edge="1">
          <mxGeometry width="50" height="50" relative="1" as="geometry">
            <mxPoint x="1117" y="348" as="sourcePoint" />
            <mxPoint x="1127" y="358" as="targetPoint" />
          </mxGeometry>
        </mxCell>
        <mxCell id="GgWPGhP955FBsJjcMlRA-104" value="" style="endArrow=none;html=1;rounded=0;" parent="1" edge="1">
          <mxGeometry width="50" height="50" relative="1" as="geometry">
            <mxPoint x="1127" y="398" as="sourcePoint" />
            <mxPoint x="1127" y="358" as="targetPoint" />
          </mxGeometry>
        </mxCell>
        <mxCell id="GgWPGhP955FBsJjcMlRA-105" value="" style="endArrow=none;html=1;rounded=0;" parent="1" edge="1">
          <mxGeometry width="50" height="50" relative="1" as="geometry">
            <mxPoint x="1117" y="408" as="sourcePoint" />
            <mxPoint x="1117" y="348" as="targetPoint" />
          </mxGeometry>
        </mxCell>
        <mxCell id="GgWPGhP955FBsJjcMlRA-106" value="&lt;div&gt;ALU&lt;/div&gt;" style="rounded=0;whiteSpace=wrap;html=1;rotation=0;" parent="1" vertex="1">
          <mxGeometry x="1167" y="347" width="80" height="151" as="geometry" />
        </mxCell>
        <mxCell id="GgWPGhP955FBsJjcMlRA-107" value="" style="endArrow=classic;html=1;rounded=0;strokeWidth=2;" parent="1" edge="1">
          <mxGeometry width="50" height="50" relative="1" as="geometry">
            <mxPoint x="1127" y="378" as="sourcePoint" />
            <mxPoint x="1167" y="378" as="targetPoint" />
          </mxGeometry>
        </mxCell>
        <mxCell id="GgWPGhP955FBsJjcMlRA-108" value="" style="endArrow=classic;html=1;rounded=0;strokeWidth=2;" parent="1" edge="1">
          <mxGeometry width="50" height="50" relative="1" as="geometry">
            <mxPoint x="1127" y="468" as="sourcePoint" />
            <mxPoint x="1167" y="468" as="targetPoint" />
          </mxGeometry>
        </mxCell>
        <mxCell id="GgWPGhP955FBsJjcMlRA-109" value="" style="endArrow=none;html=1;rounded=0;" parent="1" edge="1">
          <mxGeometry width="50" height="50" relative="1" as="geometry">
            <mxPoint x="1122" y="418" as="sourcePoint" />
            <mxPoint x="1122" y="403" as="targetPoint" />
          </mxGeometry>
        </mxCell>
        <mxCell id="GgWPGhP955FBsJjcMlRA-110" value="" style="endArrow=none;html=1;rounded=0;" parent="1" edge="1">
          <mxGeometry width="50" height="50" relative="1" as="geometry">
            <mxPoint x="1122" y="508" as="sourcePoint" />
            <mxPoint x="1122" y="493" as="targetPoint" />
          </mxGeometry>
        </mxCell>
        <mxCell id="GgWPGhP955FBsJjcMlRA-111" value="" style="endArrow=none;html=1;rounded=0;exitX=1.004;exitY=0.592;exitDx=0;exitDy=0;exitPerimeter=0;" parent="1" source="GgWPGhP955FBsJjcMlRA-201" edge="1">
          <mxGeometry width="50" height="50" relative="1" as="geometry">
            <mxPoint x="1067" y="418" as="sourcePoint" />
            <mxPoint x="1122" y="418" as="targetPoint" />
          </mxGeometry>
        </mxCell>
        <mxCell id="GgWPGhP955FBsJjcMlRA-112" value="&lt;div&gt;a_sel&lt;/div&gt;" style="edgeLabel;html=1;align=center;verticalAlign=middle;resizable=0;points=[];" parent="GgWPGhP955FBsJjcMlRA-111" vertex="1" connectable="0">
          <mxGeometry x="-0.8182" y="1" relative="1" as="geometry">
            <mxPoint x="12" y="-8" as="offset" />
          </mxGeometry>
        </mxCell>
        <mxCell id="GgWPGhP955FBsJjcMlRA-113" value="" style="endArrow=none;html=1;rounded=0;" parent="1" edge="1">
          <mxGeometry width="50" height="50" relative="1" as="geometry">
            <mxPoint x="1030" y="508" as="sourcePoint" />
            <mxPoint x="1122" y="508" as="targetPoint" />
          </mxGeometry>
        </mxCell>
        <mxCell id="GgWPGhP955FBsJjcMlRA-114" value="&lt;div&gt;b_sel&lt;/div&gt;" style="edgeLabel;html=1;align=center;verticalAlign=middle;resizable=0;points=[];" parent="GgWPGhP955FBsJjcMlRA-113" vertex="1" connectable="0">
          <mxGeometry x="-0.8909" relative="1" as="geometry">
            <mxPoint x="23" y="-8" as="offset" />
          </mxGeometry>
        </mxCell>
        <mxCell id="GgWPGhP955FBsJjcMlRA-115" value="" style="endArrow=classic;html=1;rounded=0;strokeWidth=2;entryX=0.25;entryY=1;entryDx=0;entryDy=0;" parent="1" target="GgWPGhP955FBsJjcMlRA-106" edge="1">
          <mxGeometry width="50" height="50" relative="1" as="geometry">
            <mxPoint x="1030" y="540" as="sourcePoint" />
            <mxPoint x="1180" y="498" as="targetPoint" />
            <Array as="points">
              <mxPoint x="1187" y="540" />
            </Array>
          </mxGeometry>
        </mxCell>
        <mxCell id="GgWPGhP955FBsJjcMlRA-215" value="opcode" style="edgeLabel;html=1;align=center;verticalAlign=middle;resizable=0;points=[];" parent="GgWPGhP955FBsJjcMlRA-115" vertex="1" connectable="0">
          <mxGeometry x="-0.596" y="2" relative="1" as="geometry">
            <mxPoint x="-20" y="-7" as="offset" />
          </mxGeometry>
        </mxCell>
        <mxCell id="GgWPGhP955FBsJjcMlRA-118" value="" style="endArrow=classic;html=1;rounded=0;strokeWidth=2;" parent="1" edge="1">
          <mxGeometry width="50" height="50" relative="1" as="geometry">
            <mxPoint x="1030" y="450" as="sourcePoint" />
            <mxPoint x="1115" y="450" as="targetPoint" />
          </mxGeometry>
        </mxCell>
        <mxCell id="GgWPGhP955FBsJjcMlRA-119" value="immediate" style="edgeLabel;html=1;align=center;verticalAlign=middle;resizable=0;points=[];" parent="GgWPGhP955FBsJjcMlRA-118" vertex="1" connectable="0">
          <mxGeometry x="-0.6914" y="-1" relative="1" as="geometry">
            <mxPoint x="17" y="-10" as="offset" />
          </mxGeometry>
        </mxCell>
        <mxCell id="GgWPGhP955FBsJjcMlRA-120" value="" style="endArrow=classic;html=1;rounded=0;strokeWidth=2;" parent="1" edge="1">
          <mxGeometry width="50" height="50" relative="1" as="geometry">
            <mxPoint x="1029" y="485.88" as="sourcePoint" />
            <mxPoint x="1116" y="485.88" as="targetPoint" />
          </mxGeometry>
        </mxCell>
        <mxCell id="GgWPGhP955FBsJjcMlRA-121" value="rs2_value" style="edgeLabel;html=1;align=center;verticalAlign=middle;resizable=0;points=[];" parent="GgWPGhP955FBsJjcMlRA-120" vertex="1" connectable="0">
          <mxGeometry x="-0.2857" relative="1" as="geometry">
            <mxPoint y="-10" as="offset" />
          </mxGeometry>
        </mxCell>
        <mxCell id="GgWPGhP955FBsJjcMlRA-122" value="" style="endArrow=classic;html=1;rounded=0;strokeWidth=2;exitX=1.027;exitY=0.549;exitDx=0;exitDy=0;exitPerimeter=0;" parent="1" source="GgWPGhP955FBsJjcMlRA-201" edge="1">
          <mxGeometry width="50" height="50" relative="1" as="geometry">
            <mxPoint x="1067" y="398" as="sourcePoint" />
            <mxPoint x="1117" y="398" as="targetPoint" />
          </mxGeometry>
        </mxCell>
        <mxCell id="GgWPGhP955FBsJjcMlRA-123" value="rs1_value" style="edgeLabel;html=1;align=center;verticalAlign=middle;resizable=0;points=[];" parent="GgWPGhP955FBsJjcMlRA-122" vertex="1" connectable="0">
          <mxGeometry x="-0.6152" relative="1" as="geometry">
            <mxPoint x="15" y="-9" as="offset" />
          </mxGeometry>
        </mxCell>
        <mxCell id="GgWPGhP955FBsJjcMlRA-124" value="" style="endArrow=classic;html=1;rounded=0;strokeWidth=2;" parent="1" edge="1">
          <mxGeometry width="50" height="50" relative="1" as="geometry">
            <mxPoint x="1030" y="358" as="sourcePoint" />
            <mxPoint x="1117" y="358" as="targetPoint" />
          </mxGeometry>
        </mxCell>
        <mxCell id="GgWPGhP955FBsJjcMlRA-125" value="curr_pc" style="edgeLabel;html=1;align=center;verticalAlign=middle;resizable=0;points=[];" parent="GgWPGhP955FBsJjcMlRA-124" vertex="1" connectable="0">
          <mxGeometry x="-0.7676" y="1" relative="1" as="geometry">
            <mxPoint x="10" y="-8" as="offset" />
          </mxGeometry>
        </mxCell>
        <mxCell id="GgWPGhP955FBsJjcMlRA-126" value="" style="endArrow=classic;html=1;rounded=0;strokeWidth=2;" parent="1" edge="1">
          <mxGeometry width="50" height="50" relative="1" as="geometry">
            <mxPoint x="1207" y="320" as="sourcePoint" />
            <mxPoint x="1207" y="293" as="targetPoint" />
          </mxGeometry>
        </mxCell>
        <mxCell id="GgWPGhP955FBsJjcMlRA-127" value="" style="endArrow=none;html=1;rounded=0;strokeWidth=2;exitX=0.98;exitY=0.383;exitDx=0;exitDy=0;exitPerimeter=0;" parent="1" source="GgWPGhP955FBsJjcMlRA-201" edge="1">
          <mxGeometry width="50" height="50" relative="1" as="geometry">
            <mxPoint x="1067" y="318" as="sourcePoint" />
            <mxPoint x="1207" y="320" as="targetPoint" />
          </mxGeometry>
        </mxCell>
        <mxCell id="GgWPGhP955FBsJjcMlRA-128" value="cond_opcode" style="edgeLabel;html=1;align=center;verticalAlign=middle;resizable=0;points=[];" parent="GgWPGhP955FBsJjcMlRA-127" vertex="1" connectable="0">
          <mxGeometry x="-0.883" y="-1" relative="1" as="geometry">
            <mxPoint x="25" y="-12" as="offset" />
          </mxGeometry>
        </mxCell>
        <mxCell id="GgWPGhP955FBsJjcMlRA-129" value="" style="endArrow=classic;html=1;rounded=0;" parent="1" edge="1">
          <mxGeometry width="50" height="50" relative="1" as="geometry">
            <mxPoint x="1030" y="273" as="sourcePoint" />
            <mxPoint x="1167" y="273" as="targetPoint" />
          </mxGeometry>
        </mxCell>
        <mxCell id="GgWPGhP955FBsJjcMlRA-130" value="rs1_value" style="edgeLabel;html=1;align=center;verticalAlign=middle;resizable=0;points=[];" parent="GgWPGhP955FBsJjcMlRA-129" vertex="1" connectable="0">
          <mxGeometry x="-0.64" y="-1" relative="1" as="geometry">
            <mxPoint x="6" y="-9" as="offset" />
          </mxGeometry>
        </mxCell>
        <mxCell id="GgWPGhP955FBsJjcMlRA-131" value="" style="endArrow=classic;html=1;rounded=0;entryX=-0.005;entryY=0.869;entryDx=0;entryDy=0;entryPerimeter=0;" parent="1" edge="1">
          <mxGeometry width="50" height="50" relative="1" as="geometry">
            <mxPoint x="1030" y="233" as="sourcePoint" />
            <mxPoint x="1167" y="233" as="targetPoint" />
          </mxGeometry>
        </mxCell>
        <mxCell id="GgWPGhP955FBsJjcMlRA-132" value="rs2_value" style="edgeLabel;html=1;align=center;verticalAlign=middle;resizable=0;points=[];" parent="GgWPGhP955FBsJjcMlRA-131" vertex="1" connectable="0">
          <mxGeometry x="-0.72" y="1" relative="1" as="geometry">
            <mxPoint x="6" y="-9" as="offset" />
          </mxGeometry>
        </mxCell>
        <mxCell id="GgWPGhP955FBsJjcMlRA-133" value="" style="endArrow=classic;html=1;rounded=0;strokeWidth=2;entryX=-0.061;entryY=0.237;entryDx=0;entryDy=0;entryPerimeter=0;" parent="1" target="GgWPGhP955FBsJjcMlRA-206" edge="1">
          <mxGeometry width="50" height="50" relative="1" as="geometry">
            <mxPoint x="1248" y="252" as="sourcePoint" />
            <mxPoint x="1327" y="252" as="targetPoint" />
          </mxGeometry>
        </mxCell>
        <mxCell id="GgWPGhP955FBsJjcMlRA-134" value="branch_cond" style="edgeLabel;html=1;align=center;verticalAlign=middle;resizable=0;points=[];" parent="GgWPGhP955FBsJjcMlRA-133" vertex="1" connectable="0">
          <mxGeometry x="0.6436" y="2" relative="1" as="geometry">
            <mxPoint x="-40" y="-8" as="offset" />
          </mxGeometry>
        </mxCell>
        <mxCell id="GgWPGhP955FBsJjcMlRA-135" value="" style="endArrow=classic;html=1;rounded=0;strokeWidth=2;exitX=1;exitY=0.25;exitDx=0;exitDy=0;entryX=-0.039;entryY=0.6;entryDx=0;entryDy=0;entryPerimeter=0;" parent="1" target="GgWPGhP955FBsJjcMlRA-206" edge="1">
          <mxGeometry width="50" height="50" relative="1" as="geometry">
            <mxPoint x="1247" y="422.88" as="sourcePoint" />
            <mxPoint x="1350" y="423" as="targetPoint" />
          </mxGeometry>
        </mxCell>
        <mxCell id="GgWPGhP955FBsJjcMlRA-136" value="alu_result [31:0]" style="edgeLabel;html=1;align=center;verticalAlign=middle;resizable=0;points=[];" parent="GgWPGhP955FBsJjcMlRA-135" vertex="1" connectable="0">
          <mxGeometry x="0.44" y="1" relative="1" as="geometry">
            <mxPoint x="-20" y="-12" as="offset" />
          </mxGeometry>
        </mxCell>
        <mxCell id="GgWPGhP955FBsJjcMlRA-140" value="Data Memory" style="rounded=0;whiteSpace=wrap;html=1;" parent="1" vertex="1">
          <mxGeometry x="1519" y="305.54" width="120" height="160" as="geometry" />
        </mxCell>
        <mxCell id="GgWPGhP955FBsJjcMlRA-141" value="" style="endArrow=classic;html=1;rounded=0;entryX=0;entryY=0.5;entryDx=0;entryDy=0;strokeWidth=1;" parent="1" target="GgWPGhP955FBsJjcMlRA-143" edge="1">
          <mxGeometry width="50" height="50" relative="1" as="geometry">
            <mxPoint x="1470" y="440" as="sourcePoint" />
            <mxPoint x="1539" y="441.36000000000007" as="targetPoint" />
          </mxGeometry>
        </mxCell>
        <mxCell id="GgWPGhP955FBsJjcMlRA-142" value="clk" style="edgeLabel;html=1;align=center;verticalAlign=middle;resizable=0;points=[];" parent="GgWPGhP955FBsJjcMlRA-141" vertex="1" connectable="0">
          <mxGeometry x="-0.9006" y="1" relative="1" as="geometry">
            <mxPoint x="-12" y="-4" as="offset" />
          </mxGeometry>
        </mxCell>
        <mxCell id="GgWPGhP955FBsJjcMlRA-143" value="" style="triangle;whiteSpace=wrap;html=1;" parent="1" vertex="1">
          <mxGeometry x="1519" y="435.54" width="10" height="10" as="geometry" />
        </mxCell>
        <mxCell id="GgWPGhP955FBsJjcMlRA-144" value="" style="endArrow=classic;html=1;rounded=0;strokeWidth=2;entryX=-0.016;entryY=0.656;entryDx=0;entryDy=0;entryPerimeter=0;exitX=1.025;exitY=0.575;exitDx=0;exitDy=0;exitPerimeter=0;" parent="1" source="GgWPGhP955FBsJjcMlRA-206" target="GgWPGhP955FBsJjcMlRA-140" edge="1">
          <mxGeometry width="50" height="50" relative="1" as="geometry">
            <mxPoint x="1380" y="410" as="sourcePoint" />
            <mxPoint x="1467.52" y="410.54" as="targetPoint" />
          </mxGeometry>
        </mxCell>
        <mxCell id="GgWPGhP955FBsJjcMlRA-145" value="alu_result" style="edgeLabel;html=1;align=center;verticalAlign=middle;resizable=0;points=[];" parent="GgWPGhP955FBsJjcMlRA-144" vertex="1" connectable="0">
          <mxGeometry x="-0.899" y="-2" relative="1" as="geometry">
            <mxPoint x="28" y="-17" as="offset" />
          </mxGeometry>
        </mxCell>
        <mxCell id="GgWPGhP955FBsJjcMlRA-146" value="" style="endArrow=classic;html=1;rounded=0;strokeWidth=2;" parent="1" edge="1">
          <mxGeometry width="50" height="50" relative="1" as="geometry">
            <mxPoint x="1484" y="330.54" as="sourcePoint" />
            <mxPoint x="1519" y="330.54" as="targetPoint" />
          </mxGeometry>
        </mxCell>
        <mxCell id="GgWPGhP955FBsJjcMlRA-147" value="" style="endArrow=classic;html=1;rounded=0;exitX=1.034;exitY=0.735;exitDx=0;exitDy=0;exitPerimeter=0;" parent="1" source="GgWPGhP955FBsJjcMlRA-206" edge="1">
          <mxGeometry width="50" height="50" relative="1" as="geometry">
            <mxPoint x="1384" y="485.54" as="sourcePoint" />
            <mxPoint x="1579" y="465.54" as="targetPoint" />
            <Array as="points">
              <mxPoint x="1479" y="485.54" />
              <mxPoint x="1579" y="485.54" />
            </Array>
          </mxGeometry>
        </mxCell>
        <mxCell id="GgWPGhP955FBsJjcMlRA-148" value="op_class(S)" style="edgeLabel;html=1;align=center;verticalAlign=middle;resizable=0;points=[];" parent="GgWPGhP955FBsJjcMlRA-147" vertex="1" connectable="0">
          <mxGeometry x="-0.4762" y="1" relative="1" as="geometry">
            <mxPoint x="-26" y="-11" as="offset" />
          </mxGeometry>
        </mxCell>
        <mxCell id="GgWPGhP955FBsJjcMlRA-149" value="" style="endArrow=classic;html=1;rounded=0;strokeWidth=2;" parent="1" edge="1">
          <mxGeometry width="50" height="50" relative="1" as="geometry">
            <mxPoint x="1639" y="345.54" as="sourcePoint" />
            <mxPoint x="1719" y="345.54" as="targetPoint" />
          </mxGeometry>
        </mxCell>
        <mxCell id="GgWPGhP955FBsJjcMlRA-150" value="mem_out[31:0]" style="edgeLabel;html=1;align=center;verticalAlign=middle;resizable=0;points=[];" parent="GgWPGhP955FBsJjcMlRA-149" vertex="1" connectable="0">
          <mxGeometry x="-0.563" relative="1" as="geometry">
            <mxPoint x="23" y="-15" as="offset" />
          </mxGeometry>
        </mxCell>
        <mxCell id="GgWPGhP955FBsJjcMlRA-151" value="" style="shape=trapezoid;perimeter=trapezoidPerimeter;whiteSpace=wrap;html=1;fixedSize=1;rotation=90;" parent="1" vertex="1">
          <mxGeometry x="1682" y="371.54" width="91" height="16.5" as="geometry" />
        </mxCell>
        <mxCell id="GgWPGhP955FBsJjcMlRA-152" value="&amp;nbsp;" style="shape=trapezoid;perimeter=trapezoidPerimeter;whiteSpace=wrap;html=1;fixedSize=1;rotation=90;" parent="1" vertex="1">
          <mxGeometry x="1429" y="321.79" width="92.5" height="17.5" as="geometry" />
        </mxCell>
        <mxCell id="GgWPGhP955FBsJjcMlRA-153" value="" style="endArrow=classic;html=1;rounded=0;strokeWidth=2;exitX=1.008;exitY=0.478;exitDx=0;exitDy=0;exitPerimeter=0;" parent="1" source="GgWPGhP955FBsJjcMlRA-206" edge="1">
          <mxGeometry width="50" height="50" relative="1" as="geometry">
            <mxPoint x="1384" y="365.40000000000003" as="sourcePoint" />
            <mxPoint x="1468" y="365.40000000000003" as="targetPoint" />
          </mxGeometry>
        </mxCell>
        <mxCell id="GgWPGhP955FBsJjcMlRA-154" value="rs2_value[7:0]" style="edgeLabel;html=1;align=center;verticalAlign=middle;resizable=0;points=[];" parent="GgWPGhP955FBsJjcMlRA-153" vertex="1" connectable="0">
          <mxGeometry x="-0.8466" relative="1" as="geometry">
            <mxPoint x="30" y="-11" as="offset" />
          </mxGeometry>
        </mxCell>
        <mxCell id="GgWPGhP955FBsJjcMlRA-155" value="" style="endArrow=classic;html=1;rounded=0;strokeWidth=2;exitX=1.008;exitY=0.402;exitDx=0;exitDy=0;exitPerimeter=0;" parent="1" source="GgWPGhP955FBsJjcMlRA-206" edge="1">
          <mxGeometry width="50" height="50" relative="1" as="geometry">
            <mxPoint x="1384" y="330" as="sourcePoint" />
            <mxPoint x="1468" y="330.23" as="targetPoint" />
          </mxGeometry>
        </mxCell>
        <mxCell id="GgWPGhP955FBsJjcMlRA-156" value="rs2_value[15:0]" style="edgeLabel;html=1;align=center;verticalAlign=middle;resizable=0;points=[];" parent="GgWPGhP955FBsJjcMlRA-155" vertex="1" connectable="0">
          <mxGeometry x="-0.7738" relative="1" as="geometry">
            <mxPoint x="27" y="-11" as="offset" />
          </mxGeometry>
        </mxCell>
        <mxCell id="GgWPGhP955FBsJjcMlRA-157" value="" style="endArrow=classic;html=1;rounded=0;strokeWidth=2;exitX=1.025;exitY=0.329;exitDx=0;exitDy=0;exitPerimeter=0;" parent="1" source="GgWPGhP955FBsJjcMlRA-206" edge="1">
          <mxGeometry width="50" height="50" relative="1" as="geometry">
            <mxPoint x="1384" y="295.40000000000003" as="sourcePoint" />
            <mxPoint x="1468" y="295.40000000000003" as="targetPoint" />
          </mxGeometry>
        </mxCell>
        <mxCell id="GgWPGhP955FBsJjcMlRA-158" value="rs2_value[31:0]" style="edgeLabel;html=1;align=center;verticalAlign=middle;resizable=0;points=[];" parent="GgWPGhP955FBsJjcMlRA-157" vertex="1" connectable="0">
          <mxGeometry x="-0.4762" y="1" relative="1" as="geometry">
            <mxPoint x="14" y="-11" as="offset" />
          </mxGeometry>
        </mxCell>
        <mxCell id="GgWPGhP955FBsJjcMlRA-159" value="" style="endArrow=classic;html=1;rounded=0;strokeWidth=2;" parent="1" edge="1">
          <mxGeometry width="50" height="50" relative="1" as="geometry">
            <mxPoint x="1639" y="378.69" as="sourcePoint" />
            <mxPoint x="1719" y="378.54" as="targetPoint" />
          </mxGeometry>
        </mxCell>
        <mxCell id="GgWPGhP955FBsJjcMlRA-160" value="" style="endArrow=classic;html=1;rounded=0;strokeWidth=2;" parent="1" edge="1">
          <mxGeometry width="50" height="50" relative="1" as="geometry">
            <mxPoint x="1639" y="410.54" as="sourcePoint" />
            <mxPoint x="1719" y="410.54" as="targetPoint" />
          </mxGeometry>
        </mxCell>
        <mxCell id="GgWPGhP955FBsJjcMlRA-161" value="&lt;div&gt;mem_out[15:0]&lt;/div&gt;" style="edgeLabel;html=1;align=center;verticalAlign=middle;resizable=0;points=[];" parent="1" vertex="1" connectable="0">
          <mxGeometry x="1679" y="365.54" as="geometry" />
        </mxCell>
        <mxCell id="GgWPGhP955FBsJjcMlRA-162" value="mem_out[7:0]" style="edgeLabel;html=1;align=center;verticalAlign=middle;resizable=0;points=[];" parent="1" vertex="1" connectable="0">
          <mxGeometry x="1679" y="395.54" as="geometry" />
        </mxCell>
        <mxCell id="GgWPGhP955FBsJjcMlRA-163" value="" style="endArrow=none;html=1;rounded=0;strokeWidth=2;" parent="1" edge="1">
          <mxGeometry width="50" height="50" relative="1" as="geometry">
            <mxPoint x="1379" y="265.54" as="sourcePoint" />
            <mxPoint x="1729" y="265.54" as="targetPoint" />
          </mxGeometry>
        </mxCell>
        <mxCell id="GgWPGhP955FBsJjcMlRA-164" value="op_class &amp;amp; funct3" style="edgeLabel;html=1;align=center;verticalAlign=middle;resizable=0;points=[];" parent="GgWPGhP955FBsJjcMlRA-163" vertex="1" connectable="0">
          <mxGeometry x="-0.8653" y="-1" relative="1" as="geometry">
            <mxPoint x="24" y="-12" as="offset" />
          </mxGeometry>
        </mxCell>
        <mxCell id="GgWPGhP955FBsJjcMlRA-165" value="" style="endArrow=classic;html=1;rounded=0;exitX=0.5;exitY=0;exitDx=0;exitDy=0;strokeWidth=2;" parent="1" source="GgWPGhP955FBsJjcMlRA-151" edge="1">
          <mxGeometry width="50" height="50" relative="1" as="geometry">
            <mxPoint x="1734" y="379.69" as="sourcePoint" />
            <mxPoint x="1840" y="380" as="targetPoint" />
          </mxGeometry>
        </mxCell>
        <mxCell id="GgWPGhP955FBsJjcMlRA-166" value="mem_out_ze[31:0]" style="edgeLabel;html=1;align=center;verticalAlign=middle;resizable=0;points=[];" parent="GgWPGhP955FBsJjcMlRA-165" vertex="1" connectable="0">
          <mxGeometry x="0.1853" y="1" relative="1" as="geometry">
            <mxPoint x="-7" y="-13" as="offset" />
          </mxGeometry>
        </mxCell>
        <mxCell id="GgWPGhP955FBsJjcMlRA-167" value="" style="endArrow=classic;html=1;rounded=0;entryX=0.126;entryY=0.4;entryDx=0;entryDy=0;entryPerimeter=0;strokeWidth=2;" parent="1" target="GgWPGhP955FBsJjcMlRA-151" edge="1">
          <mxGeometry width="50" height="50" relative="1" as="geometry">
            <mxPoint x="1729" y="265.54" as="sourcePoint" />
            <mxPoint x="1779" y="215.54" as="targetPoint" />
          </mxGeometry>
        </mxCell>
        <mxCell id="GgWPGhP955FBsJjcMlRA-168" value="" style="endArrow=classic;html=1;rounded=0;entryX=0.124;entryY=0.411;entryDx=0;entryDy=0;entryPerimeter=0;strokeWidth=2;" parent="1" target="GgWPGhP955FBsJjcMlRA-152" edge="1">
          <mxGeometry width="50" height="50" relative="1" as="geometry">
            <mxPoint x="1477" y="265.54" as="sourcePoint" />
            <mxPoint x="1524" y="215.54" as="targetPoint" />
          </mxGeometry>
        </mxCell>
        <mxCell id="GgWPGhP955FBsJjcMlRA-170" value="" style="shape=trapezoid;perimeter=trapezoidPerimeter;whiteSpace=wrap;html=1;fixedSize=1;rotation=90;" parent="1" vertex="1">
          <mxGeometry x="2098" y="304" width="80" height="20" as="geometry" />
        </mxCell>
        <mxCell id="GgWPGhP955FBsJjcMlRA-171" value="" style="endArrow=classic;html=1;rounded=0;entryX=0;entryY=0.5;entryDx=0;entryDy=0;" parent="1" target="GgWPGhP955FBsJjcMlRA-170" edge="1">
          <mxGeometry width="50" height="50" relative="1" as="geometry">
            <mxPoint x="2138" y="254" as="sourcePoint" />
            <mxPoint x="2138" y="224" as="targetPoint" />
          </mxGeometry>
        </mxCell>
        <mxCell id="GgWPGhP955FBsJjcMlRA-172" value="" style="endArrow=none;html=1;rounded=0;" parent="1" edge="1">
          <mxGeometry width="50" height="50" relative="1" as="geometry">
            <mxPoint x="1870" y="254" as="sourcePoint" />
            <mxPoint x="2138" y="254" as="targetPoint" />
          </mxGeometry>
        </mxCell>
        <mxCell id="GgWPGhP955FBsJjcMlRA-173" value="&lt;div&gt;branch_cond&lt;/div&gt;" style="edgeLabel;html=1;align=center;verticalAlign=middle;resizable=0;points=[];" parent="GgWPGhP955FBsJjcMlRA-172" vertex="1" connectable="0">
          <mxGeometry x="-0.8147" y="2" relative="1" as="geometry">
            <mxPoint x="12" y="-8" as="offset" />
          </mxGeometry>
        </mxCell>
        <mxCell id="GgWPGhP955FBsJjcMlRA-174" value="" style="endArrow=classic;html=1;rounded=0;entryX=0.166;entryY=1.025;entryDx=0;entryDy=0;entryPerimeter=0;strokeWidth=2;" parent="1" edge="1">
          <mxGeometry width="50" height="50" relative="1" as="geometry">
            <mxPoint x="1869" y="295" as="sourcePoint" />
            <mxPoint x="2127.5" y="294.28" as="targetPoint" />
          </mxGeometry>
        </mxCell>
        <mxCell id="GgWPGhP955FBsJjcMlRA-175" value="next_pc_ze[31:0]" style="edgeLabel;html=1;align=center;verticalAlign=middle;resizable=0;points=[];" parent="GgWPGhP955FBsJjcMlRA-174" vertex="1" connectable="0">
          <mxGeometry x="-0.9636" y="2" relative="1" as="geometry">
            <mxPoint x="41" y="-10" as="offset" />
          </mxGeometry>
        </mxCell>
        <mxCell id="GgWPGhP955FBsJjcMlRA-176" value="" style="endArrow=classic;html=1;rounded=0;entryX=0.166;entryY=1.025;entryDx=0;entryDy=0;entryPerimeter=0;strokeWidth=2;" parent="1" edge="1">
          <mxGeometry width="50" height="50" relative="1" as="geometry">
            <mxPoint x="1869" y="334" as="sourcePoint" />
            <mxPoint x="2128" y="333.76" as="targetPoint" />
          </mxGeometry>
        </mxCell>
        <mxCell id="GgWPGhP955FBsJjcMlRA-177" value="alu_result[31:0]" style="edgeLabel;html=1;align=center;verticalAlign=middle;resizable=0;points=[];" parent="GgWPGhP955FBsJjcMlRA-176" vertex="1" connectable="0">
          <mxGeometry x="-0.8545" y="-2" relative="1" as="geometry">
            <mxPoint x="21" y="-12" as="offset" />
          </mxGeometry>
        </mxCell>
        <mxCell id="GgWPGhP955FBsJjcMlRA-178" value="" style="shape=trapezoid;perimeter=trapezoidPerimeter;whiteSpace=wrap;html=1;fixedSize=1;rotation=90;strokeWidth=1;" parent="1" vertex="1">
          <mxGeometry x="2082.88" y="439.13" width="110.25" height="20" as="geometry" />
        </mxCell>
        <mxCell id="GgWPGhP955FBsJjcMlRA-179" value="" style="endArrow=classic;html=1;rounded=0;entryX=0.166;entryY=1.025;entryDx=0;entryDy=0;entryPerimeter=0;strokeWidth=2;" parent="1" edge="1">
          <mxGeometry width="50" height="50" relative="1" as="geometry">
            <mxPoint x="1867" y="483" as="sourcePoint" />
            <mxPoint x="2129" y="483.00000000000006" as="targetPoint" />
          </mxGeometry>
        </mxCell>
        <mxCell id="GgWPGhP955FBsJjcMlRA-180" value="mem_out[31:0]" style="edgeLabel;html=1;align=center;verticalAlign=middle;resizable=0;points=[];" parent="GgWPGhP955FBsJjcMlRA-179" vertex="1" connectable="0">
          <mxGeometry x="-0.9382" y="1" relative="1" as="geometry">
            <mxPoint x="34" y="-10" as="offset" />
          </mxGeometry>
        </mxCell>
        <mxCell id="GgWPGhP955FBsJjcMlRA-181" value="" style="endArrow=classic;html=1;rounded=0;strokeWidth=2;" parent="1" edge="1">
          <mxGeometry width="50" height="50" relative="1" as="geometry">
            <mxPoint x="1868" y="449" as="sourcePoint" />
            <mxPoint x="2128" y="449" as="targetPoint" />
          </mxGeometry>
        </mxCell>
        <mxCell id="GgWPGhP955FBsJjcMlRA-182" value="next_pc_ze[31:0]" style="edgeLabel;html=1;align=center;verticalAlign=middle;resizable=0;points=[];" parent="GgWPGhP955FBsJjcMlRA-181" vertex="1" connectable="0">
          <mxGeometry x="-0.2145" relative="1" as="geometry">
            <mxPoint x="-55" y="-11" as="offset" />
          </mxGeometry>
        </mxCell>
        <mxCell id="GgWPGhP955FBsJjcMlRA-185" value="" style="endArrow=none;html=1;rounded=0;strokeWidth=2;" parent="1" edge="1">
          <mxGeometry width="50" height="50" relative="1" as="geometry">
            <mxPoint x="2083" y="374" as="sourcePoint" />
            <mxPoint x="2138" y="374" as="targetPoint" />
          </mxGeometry>
        </mxCell>
        <mxCell id="GgWPGhP955FBsJjcMlRA-186" value="op_class[4:0]" style="edgeLabel;html=1;align=center;verticalAlign=middle;resizable=0;points=[];" parent="GgWPGhP955FBsJjcMlRA-185" vertex="1" connectable="0">
          <mxGeometry x="-0.5304" y="1" relative="1" as="geometry">
            <mxPoint x="-48" as="offset" />
          </mxGeometry>
        </mxCell>
        <mxCell id="GgWPGhP955FBsJjcMlRA-187" value="" style="endArrow=classic;html=1;rounded=0;entryX=1;entryY=0.5;entryDx=0;entryDy=0;strokeWidth=2;" parent="1" target="GgWPGhP955FBsJjcMlRA-170" edge="1">
          <mxGeometry width="50" height="50" relative="1" as="geometry">
            <mxPoint x="2138" y="374" as="sourcePoint" />
            <mxPoint x="2188" y="364" as="targetPoint" />
          </mxGeometry>
        </mxCell>
        <mxCell id="GgWPGhP955FBsJjcMlRA-188" value="" style="endArrow=classic;html=1;rounded=0;entryX=0;entryY=0.5;entryDx=0;entryDy=0;strokeWidth=2;" parent="1" target="GgWPGhP955FBsJjcMlRA-178" edge="1">
          <mxGeometry width="50" height="50" relative="1" as="geometry">
            <mxPoint x="2138" y="374" as="sourcePoint" />
            <mxPoint x="2148" y="394" as="targetPoint" />
          </mxGeometry>
        </mxCell>
        <mxCell id="GgWPGhP955FBsJjcMlRA-191" value="" style="endArrow=classic;html=1;rounded=0;entryX=0.326;entryY=1;entryDx=0;entryDy=0;entryPerimeter=0;strokeWidth=2;" parent="1" edge="1">
          <mxGeometry width="50" height="50" relative="1" as="geometry">
            <mxPoint x="1913" y="414" as="sourcePoint" />
            <mxPoint x="2128" y="414.0629999999999" as="targetPoint" />
          </mxGeometry>
        </mxCell>
        <mxCell id="GgWPGhP955FBsJjcMlRA-192" value="" style="endArrow=none;html=1;rounded=0;strokeWidth=2;" parent="1" edge="1">
          <mxGeometry width="50" height="50" relative="1" as="geometry">
            <mxPoint x="1913" y="414" as="sourcePoint" />
            <mxPoint x="1913" y="333" as="targetPoint" />
          </mxGeometry>
        </mxCell>
        <mxCell id="GgWPGhP955FBsJjcMlRA-194" value="AUIPC/B/J" style="text;html=1;align=center;verticalAlign=middle;resizable=0;points=[];autosize=1;strokeColor=none;fillColor=none;" parent="1" vertex="1">
          <mxGeometry x="2045" y="308" width="76" height="27" as="geometry" />
        </mxCell>
        <mxCell id="GgWPGhP955FBsJjcMlRA-195" value="LUI/AUIPC/OP" style="text;html=1;align=center;verticalAlign=middle;resizable=0;points=[];autosize=1;strokeColor=none;fillColor=none;" parent="1" vertex="1">
          <mxGeometry x="2026" y="392" width="98" height="27" as="geometry" />
        </mxCell>
        <mxCell id="GgWPGhP955FBsJjcMlRA-196" value="J/B" style="text;html=1;align=center;verticalAlign=middle;resizable=0;points=[];autosize=1;strokeColor=none;fillColor=none;" parent="1" vertex="1">
          <mxGeometry x="2080" y="428" width="36" height="27" as="geometry" />
        </mxCell>
        <mxCell id="GgWPGhP955FBsJjcMlRA-197" value="L" style="text;html=1;align=center;verticalAlign=middle;resizable=0;points=[];autosize=1;strokeColor=none;fillColor=none;" parent="1" vertex="1">
          <mxGeometry x="2088" y="459" width="26" height="27" as="geometry" />
        </mxCell>
        <mxCell id="GgWPGhP955FBsJjcMlRA-200" value="" style="rounded=0;whiteSpace=wrap;html=1;" parent="1" vertex="1">
          <mxGeometry x="570" y="140" width="30" height="470" as="geometry" />
        </mxCell>
        <mxCell id="GgWPGhP955FBsJjcMlRA-201" value="" style="rounded=0;whiteSpace=wrap;html=1;" parent="1" vertex="1">
          <mxGeometry x="999" y="140" width="30" height="470" as="geometry" />
        </mxCell>
        <mxCell id="GgWPGhP955FBsJjcMlRA-206" value="" style="rounded=0;whiteSpace=wrap;html=1;" parent="1" vertex="1">
          <mxGeometry x="1350" y="141.08" width="29" height="468.92" as="geometry" />
        </mxCell>
        <mxCell id="GgWPGhP955FBsJjcMlRA-211" value="" style="rounded=0;whiteSpace=wrap;html=1;" parent="1" vertex="1">
          <mxGeometry x="1840" y="141.08" width="29" height="468.92" as="geometry" />
        </mxCell>
        <mxCell id="GgWPGhP955FBsJjcMlRA-213" value="" style="endArrow=classic;html=1;rounded=0;entryX=0.5;entryY=1;entryDx=0;entryDy=0;strokeWidth=2;" parent="1" target="GgWPGhP955FBsJjcMlRA-106" edge="1">
          <mxGeometry width="50" height="50" relative="1" as="geometry">
            <mxPoint x="1030" y="560" as="sourcePoint" />
            <mxPoint x="1200" y="560" as="targetPoint" />
            <Array as="points">
              <mxPoint x="1207" y="560" />
            </Array>
          </mxGeometry>
        </mxCell>
        <mxCell id="GgWPGhP955FBsJjcMlRA-216" value="&lt;div&gt;funct7&lt;/div&gt;" style="edgeLabel;html=1;align=center;verticalAlign=middle;resizable=0;points=[];" parent="GgWPGhP955FBsJjcMlRA-213" vertex="1" connectable="0">
          <mxGeometry x="-0.6109" y="1" relative="1" as="geometry">
            <mxPoint x="-26" y="-8" as="offset" />
          </mxGeometry>
        </mxCell>
        <mxCell id="GgWPGhP955FBsJjcMlRA-214" value="" style="endArrow=classic;html=1;rounded=0;entryX=0.75;entryY=1;entryDx=0;entryDy=0;strokeWidth=2;" parent="1" target="GgWPGhP955FBsJjcMlRA-106" edge="1">
          <mxGeometry width="50" height="50" relative="1" as="geometry">
            <mxPoint x="1030" y="580" as="sourcePoint" />
            <mxPoint x="1226" y="500" as="targetPoint" />
            <Array as="points">
              <mxPoint x="1227" y="580" />
            </Array>
          </mxGeometry>
        </mxCell>
        <mxCell id="GgWPGhP955FBsJjcMlRA-217" value="funct3" style="edgeLabel;html=1;align=center;verticalAlign=middle;resizable=0;points=[];" parent="GgWPGhP955FBsJjcMlRA-214" vertex="1" connectable="0">
          <mxGeometry x="-0.5469" y="2" relative="1" as="geometry">
            <mxPoint x="-43" y="-8" as="offset" />
          </mxGeometry>
        </mxCell>
        <mxCell id="GgWPGhP955FBsJjcMlRA-218" value="" style="endArrow=classic;html=1;rounded=0;entryX=-0.027;entryY=0.936;entryDx=0;entryDy=0;entryPerimeter=0;strokeWidth=2;" parent="1" target="GgWPGhP955FBsJjcMlRA-206" edge="1">
          <mxGeometry width="50" height="50" relative="1" as="geometry">
            <mxPoint x="1220" y="580" as="sourcePoint" />
            <mxPoint x="1357.941" y="558.63908" as="targetPoint" />
          </mxGeometry>
        </mxCell>
        <mxCell id="GgWPGhP955FBsJjcMlRA-219" value="" style="endArrow=classic;html=1;rounded=0;strokeWidth=2;exitX=1;exitY=0.5;exitDx=0;exitDy=0;entryX=0;entryY=0.138;entryDx=0;entryDy=0;entryPerimeter=0;" parent="1" edge="1">
          <mxGeometry width="50" height="50" relative="1" as="geometry">
            <mxPoint x="1030.07" y="165.73" as="sourcePoint" />
            <mxPoint x="1351.07" y="165.52096000000003" as="targetPoint" />
          </mxGeometry>
        </mxCell>
        <mxCell id="GgWPGhP955FBsJjcMlRA-220" value="next_pc[31:0]" style="edgeLabel;html=1;align=center;verticalAlign=middle;resizable=0;points=[];" parent="GgWPGhP955FBsJjcMlRA-219" vertex="1" connectable="0">
          <mxGeometry x="0.7991" y="-1" relative="1" as="geometry">
            <mxPoint x="-111" y="-12" as="offset" />
          </mxGeometry>
        </mxCell>
        <mxCell id="GgWPGhP955FBsJjcMlRA-223" value="" style="endArrow=classic;html=1;rounded=0;strokeWidth=2;exitX=1;exitY=0.5;exitDx=0;exitDy=0;entryX=-0.037;entryY=0.14;entryDx=0;entryDy=0;entryPerimeter=0;" parent="1" edge="1">
          <mxGeometry width="50" height="50" relative="1" as="geometry">
            <mxPoint x="1379.07" y="165.73" as="sourcePoint" />
            <mxPoint x="1839.997" y="166.45879999999997" as="targetPoint" />
          </mxGeometry>
        </mxCell>
        <mxCell id="GgWPGhP955FBsJjcMlRA-224" value="next_pc[31:0]" style="edgeLabel;html=1;align=center;verticalAlign=middle;resizable=0;points=[];" parent="GgWPGhP955FBsJjcMlRA-223" vertex="1" connectable="0">
          <mxGeometry x="0.7991" y="-1" relative="1" as="geometry">
            <mxPoint x="-185" y="-12" as="offset" />
          </mxGeometry>
        </mxCell>
        <mxCell id="GgWPGhP955FBsJjcMlRA-227" value="" style="triangle;whiteSpace=wrap;html=1;rotation=-90;" parent="1" vertex="1">
          <mxGeometry x="573.37" y="585" width="23.25" height="25" as="geometry" />
        </mxCell>
        <mxCell id="GgWPGhP955FBsJjcMlRA-228" value="" style="triangle;whiteSpace=wrap;html=1;rotation=-90;" parent="1" vertex="1">
          <mxGeometry x="1002.37" y="585" width="23.25" height="25" as="geometry" />
        </mxCell>
        <mxCell id="GgWPGhP955FBsJjcMlRA-229" value="" style="triangle;whiteSpace=wrap;html=1;rotation=-90;" parent="1" vertex="1">
          <mxGeometry x="1352.88" y="585" width="23.25" height="25" as="geometry" />
        </mxCell>
        <mxCell id="GgWPGhP955FBsJjcMlRA-230" value="" style="triangle;whiteSpace=wrap;html=1;rotation=-90;" parent="1" vertex="1">
          <mxGeometry x="1842.88" y="585" width="23.25" height="25" as="geometry" />
        </mxCell>
        <mxCell id="GgWPGhP955FBsJjcMlRA-239" value="" style="endArrow=classic;html=1;rounded=0;strokeWidth=2;entryX=-0.027;entryY=0.417;entryDx=0;entryDy=0;entryPerimeter=0;" parent="1" target="GgWPGhP955FBsJjcMlRA-206" edge="1">
          <mxGeometry width="50" height="50" relative="1" as="geometry">
            <mxPoint x="1029" y="336" as="sourcePoint" />
            <mxPoint x="1116" y="336" as="targetPoint" />
          </mxGeometry>
        </mxCell>
        <mxCell id="GgWPGhP955FBsJjcMlRA-240" value="rs2_value" style="edgeLabel;html=1;align=center;verticalAlign=middle;resizable=0;points=[];" parent="GgWPGhP955FBsJjcMlRA-239" vertex="1" connectable="0">
          <mxGeometry x="-0.2857" relative="1" as="geometry">
            <mxPoint x="137" y="-12" as="offset" />
          </mxGeometry>
        </mxCell>
        <mxCell id="_0MflfALVSfiB-92yCqd-4" value="&amp;nbsp;" style="text;whiteSpace=wrap;html=1;" parent="1" vertex="1">
          <mxGeometry x="1370" y="420" width="40" height="40" as="geometry" />
        </mxCell>
        <mxCell id="_0MflfALVSfiB-92yCqd-5" value="" style="endArrow=classic;html=1;rounded=0;strokeWidth=2;entryX=0.193;entryY=0.985;entryDx=0;entryDy=0;entryPerimeter=0;" parent="1" target="_0MflfALVSfiB-92yCqd-18" edge="1">
          <mxGeometry width="50" height="50" relative="1" as="geometry">
            <mxPoint x="460" y="272.08" as="sourcePoint" />
            <mxPoint x="230" y="390" as="targetPoint" />
            <Array as="points">
              <mxPoint x="460" y="220" />
              <mxPoint x="170" y="220" />
              <mxPoint x="170" y="410" />
            </Array>
          </mxGeometry>
        </mxCell>
        <mxCell id="_0MflfALVSfiB-92yCqd-15" value="" style="endArrow=classic;html=1;rounded=0;exitX=1;exitY=1;exitDx=0;exitDy=0;entryX=-0.001;entryY=0.273;entryDx=0;entryDy=0;entryPerimeter=0;strokeWidth=2;" parent="1" edge="1">
          <mxGeometry width="50" height="50" relative="1" as="geometry">
            <mxPoint x="255.03" y="431.87" as="sourcePoint" />
            <mxPoint x="299.9999999999999" y="432.12" as="targetPoint" />
          </mxGeometry>
        </mxCell>
        <mxCell id="_0MflfALVSfiB-92yCqd-18" value="&amp;nbsp;" style="shape=trapezoid;perimeter=trapezoidPerimeter;whiteSpace=wrap;html=1;fixedSize=1;rotation=90;" parent="1" vertex="1">
          <mxGeometry x="213.13" y="423.33" width="66.25" height="17.5" as="geometry" />
        </mxCell>
        <mxCell id="gbBY1x8hugoj5Ck36s1q-1" value="&lt;div&gt;Register&lt;/div&gt;&lt;div&gt;File&lt;/div&gt;" style="rounded=0;whiteSpace=wrap;html=1;" vertex="1" parent="1">
          <mxGeometry x="760" y="368.7900000000001" width="110" height="133" as="geometry" />
        </mxCell>
        <mxCell id="gbBY1x8hugoj5Ck36s1q-2" value="sign extender" style="rounded=0;whiteSpace=wrap;html=1;" vertex="1" parent="1">
          <mxGeometry x="770" y="303.7900000000001" width="90" height="20" as="geometry" />
        </mxCell>
        <mxCell id="gbBY1x8hugoj5Ck36s1q-5" value="Decoder" style="rounded=0;whiteSpace=wrap;html=1;" vertex="1" parent="1">
          <mxGeometry x="770" y="203.79000000000005" width="90" height="80" as="geometry" />
        </mxCell>
        <mxCell id="gbBY1x8hugoj5Ck36s1q-8" value="" style="endArrow=classic;html=1;rounded=0;strokeWidth=2;entryX=0;entryY=0.25;entryDx=0;entryDy=0;" edge="1" parent="1" target="gbBY1x8hugoj5Ck36s1q-1">
          <mxGeometry width="50" height="50" relative="1" as="geometry">
            <mxPoint x="635" y="402" as="sourcePoint" />
            <mxPoint x="699" y="379.7900000000001" as="targetPoint" />
          </mxGeometry>
        </mxCell>
        <mxCell id="gbBY1x8hugoj5Ck36s1q-9" value="rs1" style="edgeLabel;html=1;align=center;verticalAlign=middle;resizable=0;points=[];" vertex="1" connectable="0" parent="gbBY1x8hugoj5Ck36s1q-8">
          <mxGeometry x="-0.3166" y="1" relative="1" as="geometry">
            <mxPoint x="-7" y="-9" as="offset" />
          </mxGeometry>
        </mxCell>
        <mxCell id="gbBY1x8hugoj5Ck36s1q-10" value="" style="endArrow=classic;html=1;rounded=0;strokeWidth=2;" edge="1" parent="1">
          <mxGeometry width="50" height="50" relative="1" as="geometry">
            <mxPoint x="635" y="313.7900000000001" as="sourcePoint" />
            <mxPoint x="770" y="313.48000000000013" as="targetPoint" />
          </mxGeometry>
        </mxCell>
        <mxCell id="gbBY1x8hugoj5Ck36s1q-11" value="immediate" style="edgeLabel;html=1;align=center;verticalAlign=middle;resizable=0;points=[];" vertex="1" connectable="0" parent="gbBY1x8hugoj5Ck36s1q-10">
          <mxGeometry x="-0.0245" relative="1" as="geometry">
            <mxPoint x="-36" y="-10" as="offset" />
          </mxGeometry>
        </mxCell>
        <mxCell id="gbBY1x8hugoj5Ck36s1q-12" value="" style="endArrow=none;html=1;rounded=0;strokeWidth=2;" edge="1" parent="1">
          <mxGeometry width="50" height="50" relative="1" as="geometry">
            <mxPoint x="635" y="435" as="sourcePoint" />
            <mxPoint x="635" y="313.7900000000001" as="targetPoint" />
          </mxGeometry>
        </mxCell>
        <mxCell id="gbBY1x8hugoj5Ck36s1q-13" value="" style="endArrow=none;html=1;rounded=0;strokeWidth=2;" edge="1" parent="1">
          <mxGeometry width="50" height="50" relative="1" as="geometry">
            <mxPoint x="600" y="243.69999999999996" as="sourcePoint" />
            <mxPoint x="660" y="243.69999999999996" as="targetPoint" />
          </mxGeometry>
        </mxCell>
        <mxCell id="gbBY1x8hugoj5Ck36s1q-14" value="&lt;div&gt;instruction [31:0&#39;]&lt;/div&gt;" style="edgeLabel;html=1;align=center;verticalAlign=middle;resizable=0;points=[];" vertex="1" connectable="0" parent="gbBY1x8hugoj5Ck36s1q-13">
          <mxGeometry x="-0.7515" y="4" relative="1" as="geometry">
            <mxPoint x="63" y="-7" as="offset" />
          </mxGeometry>
        </mxCell>
        <mxCell id="gbBY1x8hugoj5Ck36s1q-15" value="" style="endArrow=none;html=1;rounded=0;strokeWidth=2;" edge="1" parent="1">
          <mxGeometry width="50" height="50" relative="1" as="geometry">
            <mxPoint x="635" y="243.7900000000001" as="sourcePoint" />
            <mxPoint x="635" y="313.7900000000001" as="targetPoint" />
          </mxGeometry>
        </mxCell>
        <mxCell id="gbBY1x8hugoj5Ck36s1q-16" value="" style="endArrow=classic;html=1;rounded=0;entryX=0;entryY=0.5;entryDx=0;entryDy=0;strokeWidth=2;" edge="1" parent="1">
          <mxGeometry width="50" height="50" relative="1" as="geometry">
            <mxPoint x="660" y="243.69999999999996" as="sourcePoint" />
            <mxPoint x="770" y="243.69999999999996" as="targetPoint" />
          </mxGeometry>
        </mxCell>
        <mxCell id="gbBY1x8hugoj5Ck36s1q-17" value="&lt;div&gt;opcode&lt;/div&gt;" style="edgeLabel;html=1;align=center;verticalAlign=middle;resizable=0;points=[];" vertex="1" connectable="0" parent="gbBY1x8hugoj5Ck36s1q-16">
          <mxGeometry x="-0.3881" y="-1" relative="1" as="geometry">
            <mxPoint x="37" y="8" as="offset" />
          </mxGeometry>
        </mxCell>
        <mxCell id="gbBY1x8hugoj5Ck36s1q-18" value="" style="endArrow=classic;html=1;rounded=0;strokeWidth=2;" edge="1" parent="1">
          <mxGeometry width="50" height="50" relative="1" as="geometry">
            <mxPoint x="870" y="393.7900000000001" as="sourcePoint" />
            <mxPoint x="1000" y="393.7900000000001" as="targetPoint" />
          </mxGeometry>
        </mxCell>
        <mxCell id="gbBY1x8hugoj5Ck36s1q-19" value="rs1_value[31:0]" style="edgeLabel;html=1;align=center;verticalAlign=middle;resizable=0;points=[];" vertex="1" connectable="0" parent="gbBY1x8hugoj5Ck36s1q-18">
          <mxGeometry x="0.0907" y="2" relative="1" as="geometry">
            <mxPoint x="9" y="-7" as="offset" />
          </mxGeometry>
        </mxCell>
        <mxCell id="gbBY1x8hugoj5Ck36s1q-20" value="" style="endArrow=classic;html=1;rounded=0;strokeWidth=2;" edge="1" parent="1">
          <mxGeometry width="50" height="50" relative="1" as="geometry">
            <mxPoint x="870" y="473.7900000000001" as="sourcePoint" />
            <mxPoint x="1000" y="473.7900000000001" as="targetPoint" />
          </mxGeometry>
        </mxCell>
        <mxCell id="gbBY1x8hugoj5Ck36s1q-21" value="rs2_value[31:0]" style="edgeLabel;html=1;align=center;verticalAlign=middle;resizable=0;points=[];" vertex="1" connectable="0" parent="gbBY1x8hugoj5Ck36s1q-20">
          <mxGeometry x="0.7061" y="2" relative="1" as="geometry">
            <mxPoint x="-31" y="-9" as="offset" />
          </mxGeometry>
        </mxCell>
        <mxCell id="gbBY1x8hugoj5Ck36s1q-27" value="" style="endArrow=classic;html=1;rounded=0;exitX=1.003;exitY=0.684;exitDx=0;exitDy=0;exitPerimeter=0;" edge="1" parent="1" source="gbBY1x8hugoj5Ck36s1q-5">
          <mxGeometry width="50" height="50" relative="1" as="geometry">
            <mxPoint x="940" y="258.7900000000001" as="sourcePoint" />
            <mxPoint x="1000" y="258.7900000000001" as="targetPoint" />
          </mxGeometry>
        </mxCell>
        <mxCell id="gbBY1x8hugoj5Ck36s1q-28" value="a_sel" style="edgeLabel;html=1;align=center;verticalAlign=middle;resizable=0;points=[];" vertex="1" connectable="0" parent="gbBY1x8hugoj5Ck36s1q-27">
          <mxGeometry x="0.4649" y="-4" relative="1" as="geometry">
            <mxPoint x="-14" y="-11" as="offset" />
          </mxGeometry>
        </mxCell>
        <mxCell id="gbBY1x8hugoj5Ck36s1q-29" value="" style="endArrow=classic;html=1;rounded=0;exitX=1.004;exitY=0.881;exitDx=0;exitDy=0;exitPerimeter=0;" edge="1" parent="1" source="gbBY1x8hugoj5Ck36s1q-5">
          <mxGeometry width="50" height="50" relative="1" as="geometry">
            <mxPoint x="862" y="274.0300000000001" as="sourcePoint" />
            <mxPoint x="1000" y="274.7900000000001" as="targetPoint" />
          </mxGeometry>
        </mxCell>
        <mxCell id="gbBY1x8hugoj5Ck36s1q-30" value="&lt;div&gt;b_sel&lt;/div&gt;" style="edgeLabel;html=1;align=center;verticalAlign=middle;resizable=0;points=[];" vertex="1" connectable="0" parent="gbBY1x8hugoj5Ck36s1q-29">
          <mxGeometry x="0.8636" y="1" relative="1" as="geometry">
            <mxPoint x="-41" y="-6" as="offset" />
          </mxGeometry>
        </mxCell>
        <mxCell id="gbBY1x8hugoj5Ck36s1q-31" value="" style="endArrow=classic;html=1;rounded=0;strokeWidth=2;exitX=1;exitY=0.313;exitDx=0;exitDy=0;exitPerimeter=0;" edge="1" parent="1" source="gbBY1x8hugoj5Ck36s1q-5">
          <mxGeometry width="50" height="50" relative="1" as="geometry">
            <mxPoint x="940" y="228.79000000000005" as="sourcePoint" />
            <mxPoint x="1000" y="228.79000000000005" as="targetPoint" />
          </mxGeometry>
        </mxCell>
        <mxCell id="gbBY1x8hugoj5Ck36s1q-32" value="" style="endArrow=classic;html=1;rounded=0;strokeWidth=2;exitX=1.004;exitY=0.128;exitDx=0;exitDy=0;exitPerimeter=0;" edge="1" parent="1" source="gbBY1x8hugoj5Ck36s1q-5">
          <mxGeometry width="50" height="50" relative="1" as="geometry">
            <mxPoint x="940" y="213.79000000000005" as="sourcePoint" />
            <mxPoint x="1000" y="213.79000000000005" as="targetPoint" />
          </mxGeometry>
        </mxCell>
        <mxCell id="gbBY1x8hugoj5Ck36s1q-33" value="funct3[2:0]" style="edgeLabel;html=1;align=center;verticalAlign=middle;resizable=0;points=[];" vertex="1" connectable="0" parent="gbBY1x8hugoj5Ck36s1q-32">
          <mxGeometry x="0.7766" y="1" relative="1" as="geometry">
            <mxPoint x="-27" y="8" as="offset" />
          </mxGeometry>
        </mxCell>
        <mxCell id="gbBY1x8hugoj5Ck36s1q-34" value="op_class[4:0]" style="edgeLabel;html=1;align=center;verticalAlign=middle;resizable=0;points=[];" vertex="1" connectable="0" parent="gbBY1x8hugoj5Ck36s1q-32">
          <mxGeometry x="0.1299" relative="1" as="geometry">
            <mxPoint x="13" y="-9" as="offset" />
          </mxGeometry>
        </mxCell>
        <mxCell id="gbBY1x8hugoj5Ck36s1q-39" style="edgeStyle=orthogonalEdgeStyle;rounded=0;orthogonalLoop=1;jettySize=auto;html=1;exitX=1;exitY=0.5;exitDx=0;exitDy=0;strokeWidth=2;" edge="1" parent="1" source="gbBY1x8hugoj5Ck36s1q-2">
          <mxGeometry relative="1" as="geometry">
            <mxPoint x="940" y="313.62" as="sourcePoint" />
            <mxPoint x="1000" y="313.62" as="targetPoint" />
          </mxGeometry>
        </mxCell>
        <mxCell id="gbBY1x8hugoj5Ck36s1q-40" value="imm_se[31:0]" style="edgeLabel;html=1;align=center;verticalAlign=middle;resizable=0;points=[];" vertex="1" connectable="0" parent="gbBY1x8hugoj5Ck36s1q-39">
          <mxGeometry x="0.6063" relative="1" as="geometry">
            <mxPoint x="-22" y="-10" as="offset" />
          </mxGeometry>
        </mxCell>
        <mxCell id="gbBY1x8hugoj5Ck36s1q-41" value="" style="endArrow=classic;html=1;rounded=0;strokeWidth=2;fontStyle=1;exitX=1;exitY=0.5;exitDx=0;exitDy=0;" edge="1" parent="1" source="gbBY1x8hugoj5Ck36s1q-5">
          <mxGeometry width="50" height="50" relative="1" as="geometry">
            <mxPoint x="940" y="243.59000000000006" as="sourcePoint" />
            <mxPoint x="1000" y="243.59000000000006" as="targetPoint" />
          </mxGeometry>
        </mxCell>
        <mxCell id="gbBY1x8hugoj5Ck36s1q-42" value="funct7[6:0]" style="edgeLabel;html=1;align=center;verticalAlign=middle;resizable=0;points=[];" vertex="1" connectable="0" parent="gbBY1x8hugoj5Ck36s1q-41">
          <mxGeometry x="0.3333" relative="1" as="geometry">
            <mxPoint x="4" y="-7" as="offset" />
          </mxGeometry>
        </mxCell>
        <mxCell id="gbBY1x8hugoj5Ck36s1q-45" value="" style="endArrow=classic;html=1;rounded=0;strokeWidth=2;" edge="1" parent="1">
          <mxGeometry width="50" height="50" relative="1" as="geometry">
            <mxPoint x="635" y="345.7900000000001" as="sourcePoint" />
            <mxPoint x="998" y="345.7900000000001" as="targetPoint" />
          </mxGeometry>
        </mxCell>
        <mxCell id="gbBY1x8hugoj5Ck36s1q-46" value="rd_addr_out[4:0]" style="edgeLabel;html=1;align=center;verticalAlign=middle;resizable=0;points=[];" vertex="1" connectable="0" parent="gbBY1x8hugoj5Ck36s1q-45">
          <mxGeometry x="-0.3166" y="1" relative="1" as="geometry">
            <mxPoint x="191" y="-12" as="offset" />
          </mxGeometry>
        </mxCell>
        <mxCell id="gbBY1x8hugoj5Ck36s1q-48" value="" style="endArrow=classic;html=1;rounded=0;strokeWidth=2;entryX=0;entryY=0.5;entryDx=0;entryDy=0;" edge="1" parent="1" target="gbBY1x8hugoj5Ck36s1q-1">
          <mxGeometry width="50" height="50" relative="1" as="geometry">
            <mxPoint x="635" y="435" as="sourcePoint" />
            <mxPoint x="760" y="435" as="targetPoint" />
          </mxGeometry>
        </mxCell>
        <mxCell id="gbBY1x8hugoj5Ck36s1q-49" value="rs2" style="edgeLabel;html=1;align=center;verticalAlign=middle;resizable=0;points=[];" vertex="1" connectable="0" parent="gbBY1x8hugoj5Ck36s1q-48">
          <mxGeometry x="0.616" relative="1" as="geometry">
            <mxPoint x="-66" y="-11" as="offset" />
          </mxGeometry>
        </mxCell>
        <mxCell id="gbBY1x8hugoj5Ck36s1q-51" value="" style="endArrow=classic;html=1;rounded=0;strokeWidth=2;" edge="1" parent="1">
          <mxGeometry width="50" height="50" relative="1" as="geometry">
            <mxPoint x="1029" y="190" as="sourcePoint" />
            <mxPoint x="1350" y="190" as="targetPoint" />
          </mxGeometry>
        </mxCell>
        <mxCell id="gbBY1x8hugoj5Ck36s1q-52" value="&lt;div&gt;rd_addr[4:0]&lt;/div&gt;" style="edgeLabel;html=1;align=center;verticalAlign=middle;resizable=0;points=[];" vertex="1" connectable="0" parent="gbBY1x8hugoj5Ck36s1q-51">
          <mxGeometry x="-0.3166" y="1" relative="1" as="geometry">
            <mxPoint x="68" y="-9" as="offset" />
          </mxGeometry>
        </mxCell>
        <mxCell id="gbBY1x8hugoj5Ck36s1q-53" value="" style="endArrow=classic;html=1;rounded=0;strokeWidth=2;entryX=0;entryY=0.105;entryDx=0;entryDy=0;entryPerimeter=0;" edge="1" parent="1" target="GgWPGhP955FBsJjcMlRA-211">
          <mxGeometry width="50" height="50" relative="1" as="geometry">
            <mxPoint x="1379" y="190" as="sourcePoint" />
            <mxPoint x="1700" y="190" as="targetPoint" />
          </mxGeometry>
        </mxCell>
        <mxCell id="gbBY1x8hugoj5Ck36s1q-54" value="&lt;div&gt;rd_addr[4:0]&lt;/div&gt;" style="edgeLabel;html=1;align=center;verticalAlign=middle;resizable=0;points=[];" vertex="1" connectable="0" parent="gbBY1x8hugoj5Ck36s1q-53">
          <mxGeometry x="-0.3166" y="1" relative="1" as="geometry">
            <mxPoint x="68" y="-9" as="offset" />
          </mxGeometry>
        </mxCell>
        <mxCell id="gbBY1x8hugoj5Ck36s1q-55" value="" style="endArrow=classic;html=1;rounded=0;strokeWidth=2;entryX=0.75;entryY=1;entryDx=0;entryDy=0;" edge="1" parent="1" target="gbBY1x8hugoj5Ck36s1q-1">
          <mxGeometry width="50" height="50" relative="1" as="geometry">
            <mxPoint x="1869" y="530" as="sourcePoint" />
            <mxPoint x="2160" y="530" as="targetPoint" />
            <Array as="points">
              <mxPoint x="2090" y="530" />
              <mxPoint x="2090" y="680" />
              <mxPoint x="843" y="680" />
            </Array>
          </mxGeometry>
        </mxCell>
        <mxCell id="gbBY1x8hugoj5Ck36s1q-57" value="rd_addr_in[4:0]" style="edgeLabel;html=1;align=center;verticalAlign=middle;resizable=0;points=[];" vertex="1" connectable="0" parent="gbBY1x8hugoj5Ck36s1q-55">
          <mxGeometry x="0.9456" y="-2" relative="1" as="geometry">
            <mxPoint x="45" y="-11" as="offset" />
          </mxGeometry>
        </mxCell>
      </root>
    </mxGraphModel>
  </diagram>
</mxfile>
